<svg width="512" height="512" xmlns="http://www.w3.org/2000/svg">
  <defs>
    <linearGradient id="bg" x1="0%" y1="0%" x2="100%" y2="100%">
      <stop offset="0%" style="stop-color:#0d6efd;stop-opacity:1" />
      <stop offset="100%" style="stop-color:#0b5ed7;stop-opacity:1" />
    </linearGradient>
    <linearGradient id="wine" x1="0%" y1="0%" x2="100%" y2="100%">
      <stop offset="0%" style="stop-color:#8B0000;stop-opacity:1" />
      <stop offset="100%" style="stop-color:#DC143C;stop-opacity:1" />
    </linearGradient>
  </defs>
  
  <!-- Background circle -->
  <circle cx="256" cy="256" r="250" fill="url(#bg)" stroke="#fff" stroke-width="4"/>
  
  <!-- Wine glass outline -->
  <path d="M 200 150 Q 180 120 160 100 Q 150 90 150 80 L 150 50 L 362 50 L 362 80 Q 362 90 352 100 Q 330 120 312 150" 
        fill="none" stroke="#fff" stroke-width="3"/>
  
  <!-- Wine liquid -->
  <path d="M 170 150 Q 160 130 160 100 L 170 100 Q 175 120 180 150 Z" fill="url(#wine)"/>
  <path d="M 340 150 Q 350 130 352 100 L 342 100 Q 337 120 332 150 Z" fill="url(#wine)"/>
  
  <!-- Price tags -->
  <g transform="translate(180, 280)">
    <rect x="0" y="0" width="60" height="30" fill="#fff" rx="5"/>
    <text x="30" y="20" text-anchor="middle" fill="#0d6efd" font-family="Arial" font-size="12" font-weight="bold">$</text>
  </g>
  
  <g transform="translate(270, 280)">
    <rect x="0" y="0" width="60" height="30" fill="#fff" rx="5"/>
    <text x="30" y="20" text-anchor="middle" fill="#0d6efd" font-family="Arial" font-size="12" font-weight="bold">€</text>
  </g>
  
  <!-- App title -->
  <text x="256" y="380" text-anchor="middle" fill="#fff" font-family="Arial" font-size="24" font-weight="bold">Precios</text>
</svg>